<svg height="512pt" viewBox="0 -4 512.001 512" width="512pt" xmlns="http://www.w3.org/2000/svg"><path d="m10 66.035156v237.898438h492v-237.898438zm187.917969 161.9375c-14.457031 12.300782-39.65625 10.859375-53.90625 2.6875-7.289063-4.179687-10.929688-8.730468-10.929688-13.660156 0-2.460938.9375-4.953125 2.8125-7.472656 5.113281-6.863282 10.085938-3.304688 16.230469 2.652344 10.378906 10.097656 35.429688 8.824218 35.429688-7.550782 0-3.214844-.941407-6.078125-2.8125-8.597656-11.097657-14.886719-48.765626-13.253906-48.765626-46.195312 0-5.761719 1.148438-10.847657 3.453126-15.25 12.019531-22.988282 52.699218-19.378907 62.824218-10.765626 4.460938 3.800782 3.976563 9.015626 1.046875 14-1.503906 2.546876-3.535156 3.820313-6.105469 3.820313-.964843 0-3.59375-1.015625-7.875-3.054687-7.75-3.675782-20.832031-4.542969-27.71875.242187-3.160156 2.195313-4.738281 5.222656-4.738281 9.078125 0 3.109375 1.285157 5.8125 3.855469 8.113281 5.710938 5.121094 9.1875 4.796875 21.933594 11.089844 11.550781 5.707031 17.296875 9.527344 21.933594 18.316406 6.082031 11.535157 5.925781 31.828125-6.667969 42.546875zm98.894531-28.324218c0 22.300781-11.488281 34.128906-31.171875 36.3125v10.441406c0 8.902344-13.335937 8.667968-13.335937 0v-10.441406c-20.566407-2.25-30.851563-14.355469-30.851563-36.3125v-44.832032c0-12.746094 3.398437-22.0625 10.203125-27.957031 6.800781-5.890625 15.933594-8.835937 27.398438-8.835937 11.460937 0 20.617187 2.945312 27.472656 8.835937 6.855468 5.894531 10.285156 15.210937 10.285156 27.957031zm77.929688 35.828124h-50.9375c-4.394532 0-9.160157-2.128906-9.160157-6.585937v-104.441406c0-2.144531 1.019531-3.75 3.054688-4.820313 4.105469-2.160156 10.683593-2.15625 14.78125 0 2.035156 1.070313 3.054687 2.679688 3.054687 4.820313v92.710937h39.207032c8.34375 0 8.316406 18.316406 0 18.316406zm0 0" fill="#d4ffff"/><path d="m259.054688 136.339844c-11.144532 0-16.710938 6.160156-16.710938 18.476562v44.832032c0 9.316406 3.316406 15.050781 9.960938 17.191406v-8.515625c0-8.550781 13.335937-8.722657 13.335937 0v8.515625c6.855469-2.25 10.285156-7.980469 10.285156-17.191406v-44.832032c0-12.425781-6.363281-18.476562-16.871093-18.476562zm0 0" fill="#d4ffff"/><path d="m450.273438 10h-388.546876c-28.566406 0-51.726562 23.160156-51.726562 51.726562v4.308594h492v-4.308594c0-28.566406-23.160156-51.726562-51.726562-51.726562zm0 0" fill="#9bdcff"/><path d="m10 308.242188c0 28.566406 23.160156 51.726562 51.726562 51.726562h388.546876c28.570312 0 51.726562-23.160156 51.726562-51.726562v-4.308594h-492zm0 0" fill="#9bdcff"/><path d="m198.347656 454.289062h115.304688l-20.984375-94.320312h-73.335938zm0 0" fill="#ffe671"/><path d="m150.5625 454.289062c-12.050781 0-21.820312 9.769532-21.820312 21.820313v18.144531h254.515624v-18.144531c0-12.050781-9.769531-21.820313-21.820312-21.820313zm0 0" fill="#d4ffff"/><path d="m450.273438 0h-388.546876c-34.035156 0-61.726562 27.691406-61.726562 61.726562v246.515626c0 34.039062 27.691406 61.726562 61.726562 61.726562h145.136719l-16.535156 74.324219h-39.765625c-17.546875 0-31.820312 14.273437-31.820312 31.820312v8.144531h-31.523438c-5.519531 0-10 4.476563-10 10 0 5.523438 4.480469 10 10 10h326.65625c5.519531 0 10-4.476562 10-10 0-5.523437-4.480469-10-10-10h-20.617188v-8.144531c0-17.546875-14.273437-31.820312-31.820312-31.820312h-39.765625l-16.53125-74.324219h145.132813c34.035156 0 61.726562-27.6875 61.726562-61.726562 0-12.695313 0-233.960938 0-246.515626 0-34.035156-27.691406-61.726562-61.726562-61.726562zm-388.546876 20h388.546876c21.078124 0 38.542968 15.710938 41.328124 36.035156h-471.203124c2.785156-20.324218 20.25-36.035156 41.328124-36.035156zm311.53125 456.109375v8.148437h-234.515624v-8.148437c0-6.515625 5.304687-11.820313 11.820312-11.820313h210.875c6.515625 0 11.820312 5.304688 11.820312 11.820313zm-72.074218-31.820313h-90.367188l16.535156-74.320312h57.296876zm149.089844-94.320312c-17.929688 0-372.15625 0-388.546876 0-21.078124 0-38.542968-15.710938-41.328124-36.035156h337.148437c5.519531 0 10-4.476563 10-10 0-5.519532-4.480469-10-10-10h-337.546875v-217.898438h472v217.898438h-54.453125c-5.523437 0-10 4.476562-10 10 0 5.523437 4.476563 10 10 10h54.054687c-2.785156 20.324218-20.25 36.035156-41.328124 36.035156zm0 0"/><path d="m182.652344 167.109375c-12.746094-6.292969-16.222656-5.96875-21.933594-11.085937-2.570312-2.304688-3.855469-5.007813-3.855469-8.117188 0-3.855469 1.578125-6.878906 4.738281-9.078125 6.886719-4.78125 19.96875-3.917969 27.71875-.238281 4.28125 2.035156 6.910157 3.050781 7.875 3.050781 2.570313 0 4.601563-1.269531 6.105469-3.820313 2.929688-4.984374 3.414063-10.199218-1.046875-14-10.125-8.613281-50.804687-12.222656-62.824218 10.765626-2.304688 4.40625-3.453126 9.488281-3.453126 15.25 0 32.945312 37.667969 31.308593 48.765626 46.195312 1.871093 2.519531 2.8125 5.382812 2.8125 8.597656 0 16.375-25.050782 17.648438-35.429688 7.550782-6.144531-5.957032-11.117188-9.515626-16.230469-2.648438-1.875 2.515625-2.8125 5.007812-2.8125 7.46875 0 4.929688 3.640625 9.480469 10.929688 13.660156 14.25 8.171875 39.449219 9.613282 53.90625-2.6875 12.59375-10.714844 12.75-31.011718 6.667969-42.546875-4.636719-8.785156-10.382813-12.609375-21.933594-18.316406zm0 0"/><path d="m286.527344 126.859375c-6.855469-5.890625-16.011719-8.839844-27.472656-8.839844-11.464844 0-20.597657 2.949219-27.398438 8.839844-6.804688 5.890625-10.203125 15.210937-10.203125 27.957031v44.828125c0 21.960938 10.285156 34.066407 30.851563 36.3125v10.445313c0 8.664062 13.335937 8.902344 13.335937 0v-10.445313c19.683594-2.179687 31.171875-14.011719 31.171875-36.3125v-44.828125c0-12.746094-3.429688-22.066406-10.285156-27.957031zm-10.601563 72.789063c0 9.210937-3.429687 14.941406-10.285156 17.191406v-8.515625c0-8.722657-13.335937-8.550781-13.335937 0v8.515625c-6.644532-2.140625-9.960938-7.875-9.960938-17.191406v-44.832032c0-12.316406 5.566406-18.476562 16.710938-18.476562 10.507812 0 16.871093 6.050781 16.871093 18.476562zm0 0"/><path d="m374.742188 217.160156h-39.207032v-92.710937c0-2.144531-1.019531-3.75-3.054687-4.820313-4.097657-2.152344-10.675781-2.160156-14.78125 0-2.035157 1.070313-3.054688 2.679688-3.054688 4.820313v104.441406c0 4.457031 4.765625 6.585937 9.160157 6.585937h50.9375c8.316406 0 8.34375-18.316406 0-18.316406zm0 0"/><path d="m397.570312 293.933594h-.023437c-5.523437 0-9.988281 4.480468-9.988281 10 0 5.523437 4.492187 10 10.011718 10 5.523438 0 10-4.476563 10-10 0-5.519532-4.476562-10-10-10zm0 0"/></svg>